<svg xmlns="http://www.w3.org/2000/svg" width="1333.333" height="333.333" version="1.0" viewBox="0 0 1000 250">
<path d="M669.5 17.9c-9.4 1.7-13.9 6.5-13.8 14.6.2 18.4 27.7 39.5 51.5 39.5 9.9 0 15.3-2.6 18.1-8.8 1.7-4 1.8-5.2.8-9.6-1.6-7.1-5-12.4-12.3-19.2-12.4-11.6-31.5-18.7-44.3-16.5zM26.7 86.6c-.4.4-.7 31.7-.7 69.6V225h72v-31.8l29.8-.5c26.2-.4 30.7-.7 38-2.5 26.5-6.9 41-22.7 44.3-48.1 2.7-21.3-5.9-40.4-22-48.9-12.3-6.6-11.2-6.5-89.6-6.9-39.1-.2-71.4-.1-71.8.3zM138.2 116c2 .6 4.8 2.4 6.2 4.1 7.7 9.1-2.5 26-21.4 35.2-8.1 4-8.9 4.2-17.7 4.2-7.7 0-9.6-.3-12-2.1-4.3-3.2-5.6-8.1-3.7-14.6 1.3-4.2 3-6.6 8.8-12.4 12.1-12.1 27.7-17.7 39.8-14.4zM223 155.5V225h71V86h-71v69.5zM316 155.5V225h70.9l.3-15.7.3-15.8 30-.6c26.4-.5 30.9-.8 38-2.7 19-5.2 32-14.9 38.7-29.2 4.4-9.3 5.8-15.6 5.8-26.8 0-24.1-11.4-39.2-34.5-45.9-5.4-1.5-13.2-1.8-77.7-2.1l-71.8-.3v69.6zm109.7-38.6c9.8 4.5 9.5 15.4-.9 26.7-14.2 15.5-39.3 21.5-48.3 11.4-1.5-1.6-2-3.6-1.9-7.5 0-4.4.6-6.3 3.7-10.9 10.4-15.6 34.3-25.6 47.4-19.7zM513 155.5V225h71V86h-71v69.5zM634.5 87.2C633 91.1 591 223.4 591 224.1c0 .5 16.3.9 36.3.9h36.2l2.4-9 2.3-9h46.5l2.4 9 2.3 9h71.8l-.6-2.3c-.3-1.2-10-32.3-21.6-69-11.5-36.8-21-67-21-67.3 0-.2-25.4-.4-56.5-.4-44.3 0-56.7.3-57 1.2zm75.9 36.9c2.2.6 5.2 2.4 6.8 3.9 2.3 2.3 2.8 3.7 2.8 7.7 0 19-34.9 39.4-52.2 30.7-4-2-5.8-5.3-5.8-10.4 0-12 16.4-27.2 33.6-31.4 7.4-1.8 9.9-1.9 14.8-.5zM797 155.5V225h67l.2-30.7.3-30.6 23.8 30.6 23.8 30.7H975V86h-67v28.5c0 15.7-.3 28.5-.7 28.4-.5 0-9.4-12.7-19.9-28.2l-19.1-28.2-35.6-.3L797 86v69.5z"/></svg>